<?xml version="1.0" standalone="no"?>
<!DOCTYPE svg PUBLIC "-//W3C//DTD SVG 1.1//EN" "http://www.w3.org/Graphics/SVG/1.1/DTD/svg11.dtd" >
<svg xmlns="http://www.w3.org/2000/svg">
<metadata>
Created by FontForge 20120731 at Mon Jun 12 16:35:07 2017
 By admin
</metadata>
<defs>
<font id="iconfont" horiz-adv-x="1024" >
  <font-face 
    font-family="iconfont"
    font-weight="500"
    font-stretch="normal"
    units-per-em="1024"
    panose-1="2 0 6 3 0 0 0 0 0 0"
    ascent="896"
    descent="-128"
    x-height="792"
    bbox="-0.475247 -212 6999 896"
    underline-thickness="0"
    underline-position="0"
    unicode-range="U+0078-E7E0"
  />
<missing-glyph 
 />
    <glyph glyph-name=".notdef" 
 />
    <glyph glyph-name=".notdef" 
 />
    <glyph glyph-name=".null" horiz-adv-x="0" 
 />
    <glyph glyph-name="nonmarkingreturn" horiz-adv-x="341" 
 />
    <glyph glyph-name="x" unicode="x" horiz-adv-x="1001" 
d="M281 543q-27 -1 -53 -1h-83q-18 0 -36.5 -6t-32.5 -18.5t-23 -32t-9 -45.5v-76h912v41q0 16 -0.5 30t-0.5 18q0 13 -5 29t-17 29.5t-31.5 22.5t-49.5 9h-133v-97h-438v97zM955 310v-52q0 -23 0.5 -52t0.5 -58t-10.5 -47.5t-26 -30t-33 -16t-31.5 -4.5q-14 -1 -29.5 -0.5
t-29.5 0.5h-32l-45 128h-439l-44 -128h-29h-34q-20 0 -45 1q-25 0 -41 9.5t-25.5 23t-13.5 29.5t-4 30v167h911zM163 247q-12 0 -21 -8.5t-9 -21.5t9 -21.5t21 -8.5q13 0 22 8.5t9 21.5t-9 21.5t-22 8.5zM316 123q-8 -26 -14 -48q-5 -19 -10.5 -37t-7.5 -25t-3 -15t1 -14.5
t9.5 -10.5t21.5 -4h37h67h81h80h64h36q23 0 34 12t2 38q-5 13 -9.5 30.5t-9.5 34.5q-5 19 -11 39h-368zM336 498v228q0 11 2.5 23t10 21.5t20.5 15.5t34 6h188q31 0 51.5 -14.5t20.5 -52.5v-227h-327z" />
    <glyph glyph-name="good-1" unicode="&#xe669;" 
d="M837 327q33 0 32 -52t-29 -85q-14 -17 -29 -17q10 -5 9.5 -33.5t-19 -61.5t-43.5 -33q0 -36 -31 -56.5t-74 -20.5q-61 0 -100 6t-61 15t-42.5 19t-61.5 20.5t-102 16.5v410q100 29 189.5 82t147 121t57.5 130q10 0 21.5 -3.5t24.5 -13t22 -23.5t11.5 -38.5t-3 -55.5
t-25 -76t-51.5 -97h157q22 0 35 -16t14 -38.5t-3.5 -45t-17.5 -38.5t-28 -16zM234 455v-410h52v-26h-105q-22 0 -37 23t-15 54v308q0 32 15 54.5t37 22.5h105v-26h-52z" />
    <glyph glyph-name="38xinzeng" unicode="&#xe618;" 
d="M1024 186h-398v-398h-228v398h-398v228h398v398l228 -2v-396h398v-228z" />
    <glyph glyph-name="right1" unicode="&#xe60b;" 
d="M664 300l-288 -330l-15 13l275 317l-276 317l16 13z" />
    <glyph glyph-name="close" unicode="&#xe60c;" 
d="M16 796v0v0zM999 -1v0l-301 301l301 301v0q5 5 8 11q7 19 -8 33l-142 142q-14 14 -33 8q-6 -3 -11 -8v0l-301 -301l-301 301v0q-5 5 -11 8q-19 7 -33 -8l-142 -142q-14 -14 -8 -33q3 -6 8 -11v0l301 -301l-301 -301v0q-5 -5 -8 -11q-7 -19 8 -33l142 -142q14 -14 33 -8
q6 3 11 8v0l301 301l301 -301v0q5 -5 11 -8q19 -7 33 8l142 142q15 14 8 33q-3 6 -8 11z" />
    <glyph glyph-name="download" unicode="&#xe66e;" 
d="M1020 -78q7 -26 -2.5 -49t-29 -41t-47.5 -28.5t-61 -10.5q-205 -1 -367 -1h-370q-39 0 -69 14t-47.5 35t-23.5 45t1 44q7 15 13 31q6 15 13.5 33t16.5 36l41 100h124l-47 -137h700l-47 137h119q23 -56 41 -100q8 -20 15 -38t14 -33q6 -15 9.5 -25.5t3.5 -11.5v0zM474 123
q-21 24 -48 60q-35 48 -54 74q-29 38 -56 75q-28 37 -50 64q-25 30 -19.5 49t37.5 19q17 -2 46.5 0t48.5 2q22 0 27.5 13t5.5 35q0 23 -0.5 52t-0.5 59.5t-0.5 60t-0.5 54.5q0 10 1.5 22t7.5 22t17.5 16.5t30.5 6.5q23 0 42 0.5t44 0.5q36 0 48.5 -17t13.5 -54v-42
q0 -25 0.5 -53t0.5 -57v-51q0 -31 6.5 -50t29.5 -18q16 0 39.5 -1t40.5 -1q30 0 38 -16t-12 -41q-20 -26 -47 -63q-28 -37 -56 -77q-30 -40 -57 -77q-28 -37 -49 -64q-20 -25 -38 -26t-37 23v0zM474 123z" />
    <glyph glyph-name="add" unicode="&#xe612;" 
d="M514.5 739q-117.5 0 -217 -58t-157.5 -157.5t-58 -217.5q0 -110 53 -207q3 -13 13.5 -21t24.5 -8q16 0 27.5 11.5t11.5 28.5v3q0 27 -25 37l6 6q-34 71 -34 151q0 96 47.5 177.5t129 129t178 47.5t178 -47.5t129 -129t47.5 -177.5t-47.5 -178t-129 -129t-177.5 -47
q-114 0 -207 66q-12 14 -30 14q-17 0 -28.5 -11.5t-11.5 -27.5l1 -4q0 -12 7.5 -22.5t19.5 -14.5q112 -79 249 -79q118 0 217.5 58t157.5 157.5t58 217t-58 217t-157.5 157.5t-217 58zM276 307.5q0 -16.5 11.5 -28t28.5 -11.5l159 1l1 -159q0 -16 11 -27.5t27 -11.5
t27.5 11.5t11.5 27.5v159h159q17 0 28.5 11t11.5 27.5t-11.5 28t-28.5 11.5h-159v160q0 16 -11.5 27.5t-27.5 11.5t-27.5 -11.5t-11.5 -27.5v-160h-159q-17 0 -28.5 -11.5t-11.5 -28z" />
    <glyph glyph-name="address" unicode="&#xe600;" 
d="M621 -46zM526 -212q-14 0 -21 11l-308 454q-55 88 -55 191q0 100 51 184.5t139.5 134t193 49.5t193 -49.5t140 -134t51.5 -184.5q0 -103 -56 -190l-212 -315q-6 -8 -16.5 -10t-19 4t-11 16t3.5 19l212 314q47 74 47 162q0 86 -44.5 159t-121 115.5t-167 42.5t-167 -42.5
t-121 -115.5t-44.5 -159q0 -88 47 -163l307 -453q6 -9 4 -19.5t-11 -16.5q-6 -4 -14 -4zM525.5 265q-74.5 0 -127 53t-52.5 127.5t52.5 127t127 52.5t127.5 -52.5t53 -127t-53 -127.5t-127.5 -53zM525.5 572q-52.5 0 -90 -37t-37.5 -89.5t37.5 -90t90 -37.5t90 37.5t37.5 90
t-37.5 89.5t-90 37z" />
    <glyph glyph-name="download1" unicode="&#xe603;" 
d="M811 428h-171v256h-256v-256h-171l299 -299zM213 44v-85h598v85h-598zM0 812h1024v-1024h-1024v1024z" />
    <glyph glyph-name="phone1" unicode="&#xe615;" 
d="M445 305q-176 177 -128 225q3 3 10 9q14 15 21 22t16.5 20.5t12 23.5t3 25.5t-6 31.5t-19 37t-31.5 45q-19 23 -37 36.5t-32 20t-31 4t-27 -5.5t-26.5 -16t-23.5 -19.5t-23 -23.5t-21 -21q-19 -19 -23 -56.5t10 -90.5t43 -113.5t80.5 -131t118 -137t137 -118t131 -80.5
t113.5 -43t90.5 -10t56.5 23q4 5 21 21t23.5 23t19.5 23.5t16 26.5t5.5 27t-4 31t-20 32t-36.5 37q-24 19 -45 31.5t-37 19t-31.5 6t-25.5 -3t-23.5 -12t-20.5 -16.5t-22 -21q-6 -7 -9 -10q-48 -48 -225 128v0v0v0zM445 305z" />
    <glyph glyph-name="close3" unicode="&#xe622;" 
d="M512 300l344 -344q17 -17 41.5 -17t42 17.5t17.5 42t-17 41.5l-344 345l339 339q17 17 17 41.5t-17 41.5t-41.5 17t-41.5 -17l-339 -339l-345 344q-17 17 -41.5 17t-42 -17.5t-17.5 -42t17 -41.5l344 -345l-338 -338q-18 -18 -18 -42t17.5 -41.5t41.5 -17.5t42 18z" />
    <glyph glyph-name="close1" unicode="&#xe691;" 
d="M640 652v-71q87 -44 139.5 -128t52.5 -185q0 -95 -47 -176.5t-128.5 -128.5t-176.5 -47t-176.5 47t-128.5 128.5t-47 176.5q0 101 52.5 185t139.5 128v71q-114 -48 -185 -152t-71 -232q0 -172 122 -294t294 -122t294 122t122 294q0 128 -71 232t-185 152zM480 300
q-13 0 -22.5 9.5t-9.5 22.5v384q0 13 9.5 22.5t22.5 9.5t22.5 -9.5t9.5 -22.5v-384q0 -13 -9.5 -22.5t-22.5 -9.5z" />
    <glyph glyph-name="add1" unicode="&#xe6b5;" 
d="M811 257h-256v-256h-85v256h-257v85h257v257h85v-257h256v-85z" />
    <glyph glyph-name="email" unicode="&#xe658;" horiz-adv-x="1366" 
d="M1365 -41q0 -43 -22 -82l-431 482l427 373q26 -42 26 -91v-682v0zM683 271l593 519q-39 22 -81 22h-1024q-42 0 -82 -22l594 -519v0zM848 303l-137 -120q-12 -11 -28 -11t-28 11l-138 120l-436 -489q42 -26 90 -26h1024q48 0 90 26l-437 489v0zM26 732q-26 -42 -26 -91
v-682q0 -43 22 -83l431 483l-427 373v0zM26 732z" />
    <glyph glyph-name="check" unicode="&#xe7bd;" 
d="M940 593.5q-20 20.5 -49 20.5t-49 -21l-440 -440l-220 220q-20 21 -49 21t-49 -20.5t-20 -49t20 -48.5l269 -269l2 -2q21 -19 48.5 -18.5t47.5 20.5l489 489q20 20 20 48.5t-20 49z" />
    <glyph glyph-name="good" unicode="&#xe616;" 
d="M1011 161q0 52 -35 75q12 6 23.5 31t11.5 49q-1 43 -39.5 71t-99.5 28h-219q28 76 23 167t-40 146q-34 54 -86 54q-82 0 -82 -102q0 -98 -28 -164q-14 -26 -64.5 -64t-101.5 -38h-146q-42 0 -69.5 -32t-27.5 -82l38 -398q7 -99 95 -99h53h28q18 1 48 23q18 13 24 13
q2 0 7.5 -3t16 -8t19.5 -8q40 -18 90 -18h305q75 0 113 27t38 76q0 24 -15 44q34 8 56 28.5t22 51.5q0 14 -5.5 29.5t-13.5 20.5q18 5 39.5 29.5t21.5 52.5v0zM244 -157h-84q-18 0 -32 15t-18 37l-38 415q0 24 17.5 44.5t41.5 20.5v-1h143h3.5h3.5v-507q-9 -6 -17 -12
q-15 -11 -20 -12v0zM912 106h-6l1 -37q21 -7 21 -38q0 -24 -25.5 -36.5t-58.5 -12.5h1l-1 -35q21 -5 21 -39q0 -65 -111 -65h-315q-28 0 -64 18q-6 3 -52 28v492q53 15 99 53.5t62 68.5q27 63 27 181q0 33 9.5 43.5t26.5 10.5q12 0 29 -11.5t27 -27.5q31 -48 32.5 -131
t-32.5 -160l-9 -34h280q39 -2 67 -17t28 -40v-11q0 -1 -1 -8.5t-5 -18.5t-11 -17q-6 -5 -12 -8t-9 -3h-3l-1 -37q16 -2 25 -8q19 -13 18 -43q-1 -17 -21.5 -37t-36.5 -20v0zM912 106z" />
    <glyph glyph-name="download2" unicode="&#xe678;" horiz-adv-x="7000" 
d="M1 -185v996h486q201 0 311 -138q105 -131 105 -360t-105 -360q-110 -138 -311 -138h-486v0zM29 783v-940h458q200 0 301 145q87 123 87 325.5t-87 324.5q-101 146 -301 146h-458v-1zM992 172q0 166 107.5 273t286 107t286 -107t107.5 -273t-106 -271
q-109 -108 -287.5 -108t-287.5 108q-106 105 -106 271zM1020 172.5q0 -149.5 94 -247.5q99 -105 272 -105t273 105q92 98 92 247.5t-92 246.5q-100 105 -273 105t-272 -105q-94 -97 -94 -246.5zM2085 -185l-290 714h36l275 -686l279 686h45l279 -686l275 686h36l-290 -714
h-42l-281 687l-280 -687h-42zM3079 -185v714h28v-160q81 183 323 183q323 0 323 -288v-449h-28v449q0 260 -293 260q-194 0 -274 -120q-51 -76 -51 -189v-400h-28v0zM3906 -185v996h28v-968h672v-28h-700zM4613 172q0 166 107.5 273t286 107t286 -107t107.5 -273t-106 -271
q-109 -108 -287.5 -108t-287.5 108q-106 105 -106 271zM4641 172.5q0 -149.5 93 -247.5q99 -105 272 -105t274 105q92 98 92 247.5t-92 246.5q-101 105 -274 105t-272 -105q-93 -97 -93 -246.5zM6251 -147v-28q-24 -10 -65 -10q-76 0 -76 71v85h-3q-86 -179 -357 -178
q-131 0 -205 54q-78 57 -78 162q0 92 60.5 144.5t172.5 56.5l236 8q113 4 143.5 23t30.5 85v39q0 159 -296 159q-152 0 -215.5 -47.5t-71.5 -163.5h-28q7 136 93 191q73 48 222 48q324 0 324 -186v-463q0 -60 48 -60q32 0 65 10zM6110 101v133h-3q-20 -37 -187 -44l-217 -8
q-208 -8 -208 -174q0 -93 74 -141q68 -47 183 -47q174 0 270 84q88 76 88 197zM6971 -185v192h-2q-81 -214 -341 -214q-183 0 -283 114q-90 102 -90 265t90 265q100 115 283 115q261 0 341 -217h2v476h28v-996h-28zM6283 172.5q0 -149.5 81 -244.5q92 -108 264 -108t262 108
q81 95 81 244.5t-81 243.5q-90 108 -262 108t-264 -108q-81 -94 -81 -243.5z" />
    <glyph glyph-name="people" unicode="&#xe677;" 
d="M978 255q0 30 -31 57.5t-80 43.5q-3 1 -6 4t-6.5 13.5t3.5 26.5h-1q24 24 38.5 58.5t14.5 70.5q0 54 -31 84t-76.5 30t-76.5 -30t-31 -84q0 -36 15 -70.5t38 -58.5q7 -15 2.5 -25t-8.5 -13.5t-8 -5.5q-23 -8 -43 -19v28q0 29 -33 56.5t-83 44.5q-3 1 -6 4t-6.5 13t2.5 27
v0q23 24 38 58.5t15 69.5q0 54 -31 84t-76.5 30t-76.5 -30t-31 -84q0 -35 14.5 -70t38.5 -59q6 -14 2 -24t-8 -14t-8 -5q-47 -17 -79 -45t-32 -56v-29q-21 12 -45 20q-4 2 -8 5.5t-8 13.5t3 25q23 24 37.5 58.5t14.5 70.5q0 54 -30.5 84t-76.5 30t-76.5 -30t-30.5 -84
q0 -36 14.5 -70.5t37.5 -58.5v0q7 -16 3.5 -26.5t-7 -13.5t-6.5 -4q-49 -16 -80 -43.5t-31 -57.5v-188v-0.5v-0.5v-1v-1q0 -75 77 -136.5t203 -91.5v57q0 33 34.5 63t82.5 47q6 2 9 9q4 9 0 21q-25 26 -39.5 62.5t-14.5 71.5q0 60 34.5 91.5t82 31.5t82 -31.5t34.5 -91.5
q0 -35 -14.5 -71t-38.5 -62q-8 -26 4 -31q49 -16 86 -45.5t37 -64.5v-56q124 29 200.5 90.5t76.5 136.5v1v1v0.5v0.5v188z" />
    <glyph glyph-name="right" unicode="&#xe609;" 
d="M775 358l-436 437q-18 17 -42.5 17t-41.5 -17.5t-17 -42t17 -41.5l415 -416l-405 -406q-17 -16 -17 -40t16.5 -40.5t40.5 -16.5t41 16l420 421q22 22 15 52q13 17 11.5 39t-17.5 38z" />
    <glyph glyph-name="bad" unicode="&#xe617;" 
d="M178 483q0 -15 -10.5 -26t-25.5 -11q-16 0 -26.5 11t-10.5 26t10.5 25.5t26.5 10.5q15 0 25.5 -10.5t10.5 -25.5zM270 190v366q0 15 -11 26t-26 11h-164q-15 0 -26 -11t-11 -26v-366q0 -15 11 -25.5t26 -10.5h164q15 0 26 10.5t11 25.5zM915 275q31 -34 31 -85
q0 -44 -32.5 -76.5t-76.5 -32.5h-159q3 -8 5 -14t6 -13t6 -10q10 -21 15 -32.5t11 -33.5t6 -44q0 -13 -0.5 -22t-3 -26t-6.5 -28.5t-13.5 -25.5t-23 -23t-34.5 -15t-47 -6q-15 0 -26 11t-19 28.5t-11.5 30t-7.5 34.5q-5 24 -7.5 34.5t-10 27.5t-17.5 28q-19 19 -58 68
q-28 37 -57.5 69.5t-43.5 33.5t-24.5 11.5t-10.5 25.5v366q0 15 11 25.5t26 11.5q20 0 90 25q44 15 69 22.5t69.5 16.5t82.5 9h73q76 -1 113 -45q33 -39 28 -103q22 -21 31 -54q10 -35 0 -67q26 -35 24 -78q0 -18 -8 -44v0z" />
    <glyph glyph-name="iconfontshopcar" unicode="&#xe601;" 
d="M343 -39q-28 0 -47.5 -19.5t-19.5 -47t19.5 -47t47 -19.5t47 19.5t19.5 47t-19.5 47t-46.5 19.5v0v0v0zM810 -39q-28 0 -47.5 -19.5t-19.5 -47t19.5 -47t47.5 -19.5t47.5 19.5t19.5 47t-19.5 47t-47.5 19.5v0v0v0zM876 -5h-542q-36 0 -64 25t-32 61l-57 399l-32 186
q-2 12 -11.5 21t-20.5 9h-42q-14 0 -24 10t-10 23.5t10 23.5t24 10h42q37 0 65 -25t33 -62l32 -186l57 -400q1 -12 10 -20.5t20 -8.5h542q14 0 24 -9.5t10 -23.5t-10 -23.5t-24 -9.5v0v0zM376 128q-13 0 -23 9t-11 22q-1 14 8 24.5t23 11.5l453 33q13 0 22 8.5t11 19.5
l52 301q3 19 -8 31q-7 8 -16 8h-578q-14 0 -24 9.5t-10 23.5t10 24t24 10h578q39 0 66 -30q31 -35 24 -85l-52 -302q-4 -35 -32 -59.5t-64 -24.5l-451 -34h-2v0v0zM376 128z" />
    <glyph glyph-name="favorite" unicode="&#xe627;" horiz-adv-x="1025" 
d="M512 571q-38 86 -109.5 130.5t-157 36t-149 -68t-86.5 -151.5q-23 -93 4.5 -180t96.5 -143q312 -255 401 -334q89 79 401 334q69 56 96.5 143t4.5 180q-23 92 -86.5 151.5t-149 68t-157 -36t-109.5 -130.5z" />
    <glyph glyph-name="favorite1" unicode="&#xe61a;" 
d="M958 494q-14 98 -89.5 161t-170.5 63q-59 0 -113 -27q-12 -6 -24 -13.5t-27 -18.5t-24 -16l-3 3q-77 72 -180 72q-69 0 -131 -36q-71 -41 -106 -115t-21 -155q15 -88 85 -158q138 -139 303 -305q23 -23 56 -23t56 23q209 209 315 318q92 96 74 227zM837 313
q-104 -108 -313 -318q-5 -4 -11 -4t-10 4q-163 163 -303 305q-55 56 -67 123q-10 60 16 116t79 87q47 27 99 27q78 0 136 -55q22 -20 47 -20q19 0 35 10q9 6 26 18q29 20 43 27q40 20 84 20q74 0 130 -48t66 -121q14 -99 -57 -171z" />
    <glyph glyph-name="add2" unicode="&#xe607;" 
d="M496.5 781q-100.5 0 -192.5 -39.5t-158.5 -106t-106 -158.5t-39.5 -192.5t39.5 -192.5t106 -158.5t158.5 -106t192.5 -39.5t192.5 39.5t158.5 106t106 158.5t39.5 192.5t-39.5 192.5t-106 158.5t-158.5 106t-192.5 39.5zM496.5 -150q-88.5 0 -169 34.5t-138.5 92.5
t-92.5 138.5t-34.5 169t34.5 169t92.5 138.5t138.5 92.5t169 34.5t169 -34.5t138.5 -92.5t92.5 -138.5t34.5 -169t-34.5 -169t-92.5 -138.5t-138.5 -92.5t-169 -34.5zM683 316h-155v155q0 13 -9.5 22t-22 9t-22 -9t-9.5 -22v-155h-155q-13 0 -22 -9.5t-9 -22t9 -22t22 -9.5
h155v-155q0 -13 9.5 -22t22 -9t22 9t9.5 22v155h155q13 0 22 9.5t9 22t-9 22t-22 9.5z" />
    <glyph glyph-name="phone" unicode="&#xe684;" 
d="M916 356q-45 0 -102 14.5t-78 35.5q-18 18 -26 60q-4 18 -7 24.5t-10 9.5q-73 31 -182 31q-108 0 -180 -30q-7 -3 -10 -10t-7 -24q-7 -42 -26 -61q-20 -20 -78 -35q-54 -13 -101 -13q-50 0 -70 19q-32 32 -35 75q-4 52 35 91q79 79 209 121q121 40 262 40t264 -41
q131 -42 211 -122q26 -26 32.5 -57.5t-2.5 -59t-30 -48.5q-19 -20 -69 -20zM511 583q119 0 202 -36q17 -7 27.5 -21t13.5 -24t6 -26q5 -27 12 -34q11 -10 57.5 -22t86.5 -12q26 0 34 4q9 10 15 23.5t3.5 33t-19.5 36.5q-70 69 -186 108t-253 39q-136 0 -251.5 -38.5
t-183.5 -107.5q-22 -22 -20 -49q2 -25 20 -43q8 -5 34 -5q40 0 86.5 11.5t56.5 22.5q7 7 12 33q3 17 6 26.5t13.5 23.5t27.5 22q81 35 200 35v0zM845 -110h-666q-53 0 -89 38t-33 92q1 11 3.5 30.5t19 69t42.5 91.5q53 84 137 132q106 59 253 59t253 -59q85 -48 137 -132
q26 -42 42.5 -91.5t19 -69t3.5 -30.5q3 -54 -33 -92t-89 -38zM512 351q-241 0 -346 -165q-23 -37 -37.5 -81.5t-17 -61.5t-3.5 -26q-2 -31 19 -53t52 -22h666q31 0 52 22t19 53q-1 9 -3 26t-17 61.5t-38 81.5q-105 165 -346 165v0zM512 -7q-64 0 -109 45t-45 108.5t45 108.5
t109 45t109 -45t45 -108.5t-45 -108.5t-109 -45zM512 249q-42 0 -72 -30t-30 -72.5t30 -72.5t72 -30t72 30t30 72.5t-30 72.5t-72 30z" />
    <glyph glyph-name="close2" unicode="&#xe6a7;" 
d="M512 768q-158 0 -271 -113t-113 -271t113 -271t271 -113t271 113t113 271t-113 271t-271 113zM512 64q-134 0 -227 93t-93 227t93 227t227 93t227 -93t93 -227t-93 -227t-227 -93zM672 544q-10 10 -22.5 10t-22.5 -10l-115 -115l-115 115q-10 10 -22.5 10t-22.5 -10
t-10 -22.5t10 -22.5l115 -115l-115 -115q-10 -10 -10 -22.5t10 -22.5t22.5 -10t22.5 10l115 115l115 -115q10 -10 22.5 -10t22.5 10t10 22.5t-10 22.5l-115 115l115 115q10 10 10 22.5t-10 22.5z" />
    <glyph glyph-name="add3" unicode="&#xe667;" 
d="M852.5 633.5q-92.5 92.5 -216 125t-247.5 -0.5t-216 -125t-125 -216t0 -247.5t125.5 -216t216.5 -125t247.5 0t215.5 125t125 216.5t0 247.5t-125.5 216zM747 246h-197v-197q0 -16 -10.5 -27t-26 -11t-26.5 11t-11 26v198h-197q-15 0 -26 10.5t-11 26t11 26.5t26 11h197
v197q0 15 11 26t26.5 11t26 -11t10.5 -26v-197h197q16 0 26.5 -10.5t10.5 -26t-10.5 -26.5t-26.5 -11z" />
    <glyph glyph-name="iconfonticonfontweibiaoti1" unicode="&#xe6ba;" 
d="M641 143q210 104 272 367q26 110 20 199q-5 1 -14.5 1t-38.5 -1t-58.5 -4.5t-71.5 -12.5t-81 -22t-83.5 -36t-82.5 -52t-73.5 -72t-61.5 -95l-224 -30l-59 -176l42 -43l169 67l83 -82l75 -76l-63 -173l43 -43l177 60zM737 512q-15 15 -15 36.5t15 36.5t36.5 15t37 -15
t15.5 -36.5t-15.5 -36.5t-37 -15t-36.5 15z" />
    <glyph glyph-name="anli" unicode="&#xe6d5;" 
d="M912 263h-339q-9 0 -15.5 -6.5t-6.5 -16.5v-350q0 -9 6.5 -16t15.5 -7h339q9 0 15.5 7t6.5 16v350q0 10 -6.5 16.5t-15.5 6.5zM857 -42q0 -5 -3 -8.5t-8 -3.5h-208q-4 0 -7.5 3.5t-3.5 8.5v216q0 4 3.5 7.5t7.5 3.5h208q5 0 8 -3.5t3 -7.5v-216zM912 738h-339
q-9 0 -15.5 -7t-6.5 -16v-350q0 -10 6.5 -16.5t15.5 -6.5h339q9 0 15.5 6.5t6.5 16.5v350q0 9 -6.5 16t-15.5 7zM857 432q0 -4 -3 -7.5t-8 -3.5h-208q-4 0 -7.5 3.5t-3.5 7.5v216q0 5 3.5 8.5t7.5 3.5h208q5 0 8 -3.5t3 -8.5v-216zM453 263h-339q-9 0 -15.5 -6.5t-6.5 -16.5
v-350q0 -10 6.5 -16.5t15.5 -6.5h339q9 0 15.5 6.5t6.5 16.5v350q0 10 -6.5 16.5t-15.5 6.5zM398 -42q0 -5 -3 -8.5t-8 -3.5h-208q-4 0 -7.5 3.5t-3.5 8.5v216q0 4 3.5 7.5t7.5 3.5h208q5 0 8 -3.5t3 -7.5v-216v0v0zM453 738h-339q-9 0 -15.5 -7t-6.5 -16v-350
q0 -10 6.5 -16.5t15.5 -6.5h339q9 0 15.5 6.5t6.5 16.5v350q0 9 -6.5 16t-15.5 7zM398 432q0 -4 -3 -7.5t-8 -3.5h-208q-4 0 -7.5 3.5t-3.5 7.5v216q0 5 3.5 8.5t7.5 3.5h208q5 0 8 -3.5t3 -8.5v-216v0z" />
    <glyph glyph-name="check1" unicode="&#xe697;" 
d="M66 278q18 -17 48 -46.5t104 -114t127 -161.5q175 292 471 522q81 63 136 96l7 34q3 38 -23 35q-7 -1 -18 -7q-11 -4 -30.5 -13.5t-82.5 -44.5t-129 -77.5t-163 -115.5t-190 -157q-51 49 -96.5 83.5t-63.5 44.5t-20 10q-25 11 -40 6t-23 -20t-11 -31.5t-3 -29.5v-13v0z
M66 278z" />
    <glyph glyph-name="add6" unicode="&#xe60a;" 
d="M777 -143h-534q-74 0 -126 52t-52 126v533q0 74 52 126t126 52h534q74 0 126 -52t52 -126v-533q0 -74 -52 -126t-126 -52v0v0zM563 37v0v211h212v107h-212v212h-106v-212h-212v-107h212v-211h106v0zM510 79z" />
    <glyph glyph-name="bad1" unicode="&#xe716;" 
d="M743 865q54 0 94.5 -24t63.5 -70q3 -5 5 -16q5 -28 30 -57q17 -21 23.5 -46t6 -40.5t-4.5 -41.5q-3 -20 -3 -29q-1 -22 2.5 -33.5t16.5 -33.5q9 -14 11 -17q17 -30 16.5 -65.5t-19.5 -68.5q-21 -37 -59.5 -57.5t-83.5 -20.5q-64 0 -142 2q26 -148 26 -211
q0 -64 -37.5 -94.5t-87.5 -30.5q-47 0 -80 38.5t-33 94.5q0 45 -3.5 59.5t-19.5 37.5q-46 63 -88 103t-63 40h-196q-37 0 -63 25.5t-26 61.5v406q0 36 26 62t63 26h134q9 0 16 -7t7 -16v-512h39q72 0 189 -162q22 -31 27 -52.5t5 -71.5q0 -36 19.5 -61.5t46.5 -25.5
q12 0 23 2.5t24.5 9.5t22 24.5t8.5 42.5q0 31 -8 90.5t-14 94.5t-8 45q-2 11 5.5 19.5t18.5 8.5l5.5 -0.5t15 -0.5t22 -0.5t27.5 -0.5t31 -0.5t34 -0.5h34q33 0 60 14.5t43 40.5q27 46 2 88q-4 8 -10 17q-10 17 -15 26.5t-8.5 27t-2.5 39.5q1 10 4 32q5 24 3 48.5t-18 43.5
q-32 39 -40 78q-1 4 -1 6q-34 67 -116 67h-316q-10 0 -17 6.5t-7 16t7 16.5t17 7h316v0zM118 330h110v489h-110q-18 0 -30 -12.5t-12 -29.5v-406q0 -17 12 -29t30 -12v0zM118 330z" />
    <glyph glyph-name="add4" unicode="&#xe613;" 
d="M829 364h-297v-297q0 -5 -3 -8t-7 -3h-20q-4 0 -7 3t-3 8v297h-297q-5 0 -8 3t-3 7v20q0 4 3 7t8 3h297v297q0 5 3 8t7 3h20q4 0 7 -3t3 -8v-297h297q5 0 8 -3t3 -7v-20q0 -4 -3 -7t-8 -3z" />
    <glyph glyph-name="check-b" unicode="&#xe619;" 
d="M512 879q-101 0 -192.5 -39.5t-157.5 -105.5t-105.5 -157.5t-39.5 -192.5t39.5 -192.5t105.5 -157.5t157.5 -105.5t192.5 -39.5t192.5 39.5t157.5 105.5t105.5 157.5t39.5 192.5t-39.5 192.5t-105.5 157.5t-157.5 105.5t-192.5 39.5v0zM796 512l-320 -320
q-11 -11 -26.5 -12.5t-28.5 5.5q-5 3 -8 7v0l-185 185q-13 13 -13 31.5t13 31.5t32 13t32 -13l152 -153l288 289q14 13 32.5 13t31.5 -13t13 -32t-13 -32v0zM796 512z" />
    <glyph glyph-name="guanyu2" unicode="&#xe6b4;" 
d="M35 896h954q14 0 24.5 -10.5t10.5 -24.5v-954q0 -14 -10.5 -24.5t-24.5 -10.5h-954q-14 0 -24.5 10.5t-10.5 24.5v954q0 14 10.5 24.5t24.5 10.5v0zM561.5 652q16.5 -12 38 -5.5t35.5 27t12.5 44t-17.5 35.5t-37.5 5.5t-36 -27.5t-13 -44t18 -35zM566 108l-3.5 -3.5
t-10.5 -8.5t-13.5 -8.5t-13.5 -5t-11.5 2t-6 13t2.5 28.5q6 38 27 118q8 34 34 126t41 148q0 2 1 6t0 14t-5.5 16.5t-17.5 11t-32 1.5q-44 -7 -100 -49q-51 -39 -82 -80l25 -22l42 42q70 62 66 12q-1 -11 -5 -28q-3 -9 -22.5 -78.5t-26 -96t-19 -78.5t-17.5 -83.5t-4 -53.5
q0 -21 10 -32t24 -12t28 2t23.5 7l9.5 4q26 16 54 40q17 14 37.5 32.5t32.5 30.5l12 11l-22 24z" />
    <glyph glyph-name="download3" unicode="&#xe629;" 
d="M408 794h381q15 0 25 -10t10 -25v-750q0 -15 -10 -25t-25 -10h-554q-15 0 -25 10t-10 25v580h208v205zM96 623v-683q0 -28 20.5 -48t48.5 -20h694q28 0 48.5 20t20.5 48v888q0 28 -20.5 48t-48.5 20h-486zM443 418v-136h-113l182 -181l184 181h-115v136h-138z" />
    <glyph glyph-name="address2" unicode="&#xe611;" 
d="M509 896q-114 0 -209 -55t-149.5 -149.5t-54.5 -205.5q0 -70 52.5 -162.5t113.5 -161.5v0l3 -11h-3q10 -12 23 -28t26 -33t27 -35.5t27 -36.5t25 -35t22.5 -31.5t18 -25t12 -17t5.5 -7.5q24 -30 60 -30q37 0 62 31q94 121 134 181q17 27 51 66q16 19 36 45.5t55.5 78
t58.5 109t23 103.5q0 111 -56 205.5t-152.5 149.5t-210.5 55zM508.5 390q-53.5 0 -91.5 37t-38 89.5t38 89.5t91.5 37t91.5 -37t38 -89.5t-38 -89.5t-91.5 -37z" />
    <glyph glyph-name="address1" unicode="&#xe6e6;" 
d="M702 542q0 79 -55.5 135t-134.5 56t-134.5 -56t-55.5 -134.5t55.5 -134.5t134.5 -56t134.5 56t55.5 134v0zM364 542q0 62 43.5 105t104.5 43t104.5 -43t43.5 -104.5t-43.5 -104.5t-104.5 -43t-104.5 43t-43.5 104v0zM850 542q0 92 -45 170t-123 123t-170 45t-170 -45
t-123 -123t-45 -170q0 -52 36.5 -134t81 -153t102.5 -150.5t81 -108.5t37 -45v0q14 17 36.5 45t81 108t103 151t81 153t36.5 134v0zM512 838q122 0 209 -86.5t87 -209.5q0 -45 -30.5 -116.5t-74 -140.5t-87 -131.5t-74.5 -100.5l-30 -39q-12 15 -32 40.5t-71 97.5t-90 135.5
t-71 136.5t-32 118q0 123 87 209.5t209 86.5v0zM661 86q-11 -16 -26 -36q68 -8 110 -23t42 -34q0 -26 -80.5 -44.5t-194.5 -18.5t-194 18.5t-80 44.5q0 19 41.5 34t110.5 23q-15 19 -27 36q-76 -13 -122 -38t-46 -55q0 -44 93 -74.5t224 -30.5t224 30.5t93 74.5q0 30 -46 55
t-122 38v0z" />
    <glyph glyph-name="home2" unicode="&#xe634;" 
d="M918 314h-95v-283q0 -38 -27 -66t-65 -28h-126v189q0 39 -27 67t-66 28t-66 -28t-27 -67v-189h-126q-38 0 -65 28t-27 66v283h-103l-8 8q-28 29 -28 69t28 70q50 51 108 107.5t129.5 125.5t109.5 106q30 30 74.5 30t75.5 -29l53 -53q2 31 23 52q23 23 54 23h1
q31 0 53.5 -23t22.5 -55q0 -29 -0.5 -83t-0.5 -63l141 -138q28 -30 28 -70t-28 -69l-9 -8h-7zM805 352h105q15 17 15 39q0 25 -17 44q-5 4 -152 148l1 162v0q0 17 -11.5 28.5t-27.5 11.5h-1q-16 0 -28 -12t-12 -28v-85l-116 113q-19 20 -49 20t-50 -20l-345 -338
q-18 -19 -18 -44q0 -22 14 -39h125v-321q0 -23 16 -39.5t39 -16.5h89v151q0 55 38 94t92 39t92 -39t38 -94v-151h89q23 0 39 16.5t16 39.5v321h19z" />
    <glyph glyph-name="2" unicode="&#xe602;" 
d="M1007 495q-1 6 -4.5 18t-4.5 18q-3 13 -15 19.5t-25 2.5t-19.5 -16t-1.5 -25q1 -5 4 -16t4 -16q9 -40 9 -90q0 -88 -35 -169.5t-93.5 -140.5t-140 -94t-171 -35t-171 34.5t-140.5 93.5t-93.5 140.5t-34.5 170.5t34.5 170.5t93.5 140.5t140.5 94t170.5 35
q107 0 200.5 -48.5t155.5 -135.5l-277 -328l-171 126q-9 8 -21.5 6.5t-20.5 -11.5l-192 -224q-9 -9 -8 -23t12 -21q13 -9 21 -9q13 0 24 11l173 200l170 -126q10 -7 22.5 -6t20.5 11l386 458q8 10 7.5 23.5t-11.5 21.5q-10 9 -23.5 8t-21.5 -12l-47 -56q-70 93 -175.5 145
t-223.5 52q-102 0 -195 -40t-160.5 -107.5t-107.5 -161t-40 -195.5t40 -195t107.5 -160.5t160.5 -107.5t195 -40t195.5 40t161 107.5t107.5 160.5t40 195q0 54 -11 107z" />
    <glyph glyph-name="email1" unicode="&#xe723;" 
d="M512 896q-104 0 -199 -40.5t-163.5 -109t-109 -163.5t-40.5 -199t40.5 -199t109 -163.5t163.5 -109t199 -40.5t199 40.5t163.5 109t109 163.5t40.5 199t-40.5 199t-109 163.5t-163.5 109t-199 40.5zM247 533q2 17 16 29t33 12v0h432q19 0 33 -12t16 -29v-5l-265 -158
l-266 158q0 3 1 5zM778 240q0 -19 -15 -32.5t-35 -13.5h-432q-20 0 -35 13.5t-15 32.5v247l266 -157l266 157v-247z" />
    <glyph glyph-name="home1" unicode="&#xe648;" horiz-adv-x="1025" 
d="M867 334q-25 21 -243 200q-74 62 -112 92q-7 -5 -8 -6q-271 -223 -350 -289q-7 -6 -7 -17q-1 -108 0 -292q0 -46 46 -46h225q1 0 13 1v243h162v-244h14h223q48 0 48 49q0 53 -0.5 95.5t0 95.5t0.5 96q0 13 -11 22zM1010 400q-96 80 -115 95q-18 14 -18 38q1 45 1 230
q0 14 -5 20t-17 6q-60 1 -119 0q-21 0 -22 -21v-38v-84q-11 9 -13 11q-89 74 -133 110q-57 48 -114 0q-47 -38 -132.5 -109.5t-110.5 -92.5q-9 -8 -83.5 -70t-113.5 -94q-14 -12 -15 -20.5t12 -22.5q4 -6 13.5 -17t13.5 -16q11 -13 19 -13.5t21 9.5q40 34 152.5 128
t173.5 145q1 0 107 89q9 -8 47 -40t59 -49q54 -45 163.5 -136t164.5 -137q12 -10 20 -9.5t19 13.5q5 6 14.5 17t14.5 17q11 13 10 21.5t-14 19.5z" />
    <glyph glyph-name="add5" unicode="&#xe636;" 
d="M512 896q-138 0 -256 -69t-187 -187t-69 -256t69 -256t187 -187t256 -69t256 69t187 187t69 256t-69 256t-187 187t-256 69zM717 333h-154v-154q0 -19 -16 -35t-35 -16t-35 16t-16 35v154h-154q-19 0 -35 16t-16 35t16 35t35 16h154v154q0 19 16 35t35 16t35 -16t16 -35
v-154h154q19 0 35 -16t16 -35t-16 -35t-35 -16z" />
    <glyph glyph-name="product" unicode="&#xe623;" 
d="M748 469v231l-234 132l-235 -132v-231l-204 -115v-266l235 -132l204 114l203 -114l235 132v266l-204 115v0zM717 257l-140 79l140 79l141 -79l-141 -79v0zM341 629l141 -80v-158l-141 79v159v0zM545 391v158l141 80v-159l-141 -79v0zM451 336l-141 -79l-140 79l140 79
l141 -79v0zM341 203l141 79v-158l-141 -79v158v0zM654 682l-140 -79l-141 79l141 79l140 -79v0zM138 282l141 -79v-158l-141 79v158v0zM545 282l141 -79v-158l-141 79v158v0zM748 45v158l141 79v-158l-141 -79v0zM748 45z" />
    <glyph glyph-name="guanyu3" unicode="&#xe61e;" 
d="M303 246q30 -21 51 -55l133 27q0 54 31 110q38 63 94 86l-59 168q-29 0 -50 15q-36 21 -45.5 61.5t13.5 75.5q21 38 61.5 48.5t75.5 -13.5q41 -23 47 -70l129 -8q7 20 23 31q27 21 59.5 16t50.5 -31q20 -27 15.5 -59.5t-31.5 -50.5q-26 -20 -59 -15t-50 31q-16 16 -16 39
l-121 8q-2 -4 -6 -14t-6 -13q-16 -28 -39 -40l55 -164q86 19 164 -23q79 -47 100 -136.5t-26 -168.5q-47 -80 -136 -102t-169 28q-79 49 -97 133l-125 -24q5 -44 -20 -82q-29 -50 -85 -65t-106 14q-50 32 -63.5 89t16.5 107q30 47 85.5 61t105.5 -14v0z" />
    <glyph glyph-name="anli1" unicode="&#xe7d5;" 
d="M253 691h-145q-19 0 -32.5 -13.5t-13.5 -32.5v-58h237v58q0 19 -13.5 32.5t-32.5 13.5zM62 510h237v-288h-237v288zM62 177h237v-46h-237v46zM62 45q0 -19 13.5 -32.5t32.5 -13.5h145q19 0 32.5 13.5t13.5 32.5v40h-237v-40zM508 822h-113q-19 0 -32 -13.5t-13 -32.5v-39
h204v39q0 19 -13.5 32.5t-32.5 13.5zM350 45q0 -19 13 -32.5t32 -13.5h113q19 0 32.5 13.5t13.5 32.5v646h-204v-646zM960 83l-14 51l-211 -56l14 -51q5 -18 21.5 -27.5t34.5 -5.5l122 33q19 5 28 21t5 35zM822 597q-5 18 -21.5 27.5t-34.5 5.5l-123 -33q-18 -4 -27.5 -20.5
t-4.5 -35.5l101 -375l210 56z" />
    <glyph glyph-name="download4" unicode="&#xe686;" 
d="M656 656v224h-512v-992h736v768h-224zM656 880v-224h224zM544 288v208h-64v-208h-80l112 -112l112 112h-80zM896 656q0 6 -5 11l-224 224q-5 5 -11 5v0h-496q-13 0 -22.5 -9.5t-9.5 -22.5v-960q0 -13 9.5 -22.5t22.5 -9.5h704q13 0 22.5 9.5t9.5 22.5v752v0v0zM672 842
l170 -170h-170v170zM864 -96h-704v960h480v-224h224v-736zM387 279l0.5 -1t1.5 -2l111 -111h1q4 -5 11 -5v0v0q7 0 11 5h1l111 111q1 1 1.5 2l0.5 1q2 2 2 3q1 3 1 6v0v0.5v0.5q0 3 -1 5v1l-4 4q-4 5 -11 5h-1h-63v192q0 7 -4.5 11.5t-11.5 4.5h-64q-7 0 -11.5 -4.5
t-4.5 -11.5v-192h-63h-1q-7 0 -11 -5l-4 -4v-1q-1 -2 -1 -5v-0.5v-0.5v0q0 -3 1 -6q1 -1 2 -3zM480 272q7 0 11.5 4.5t4.5 11.5v192h32v-192q0 -7 4.5 -11.5t11.5 -4.5h41l-73 -73l-73 73h41zM288 80q0 -7 4.5 -11.5t11.5 -4.5h416q7 0 11.5 4.5t4.5 11.5t-4.5 11.5
t-11.5 4.5h-416q-7 0 -11.5 -4.5t-4.5 -11.5z" />
    <glyph glyph-name="favorite2" unicode="&#xe6f6;" 
d="M1021 514q-16 40 -58 51l-267 41l-116 246q-10 20 -28.5 32t-39.5 12t-39.5 -12t-28.5 -32l-116 -246l-267 -41q-40 -5 -58 -51q-11 -47 17 -75l195 -202l-44 -280q-6 -45 30 -71q19 -14 41 -14q19 0 34 10l233 130l232 -130q15 -10 34 -10q27 0 41 14q36 26 31 71
l-45 280l195 202q36 27 24 75v0v0zM754 288q-26 -26 -20 -64l44 -280l-232 133q-15 10 -34 10t-34 -10l-232 -130l44 280q6 39 -20 65l-195 201l266 41q37 5 55 41l116 246l116 -249q15 -36 55 -41l266 -41l-195 -202v0v0z" />
    <glyph glyph-name="about" unicode="&#xe60f;" 
d="M509 307q-96 0 -163 72q-28 30 -47.5 80.5t-19.5 91.5v2q0 102 67.5 174.5t162.5 72.5t162 -72q28 -31 47.5 -81.5t19.5 -91.5v-2q0 -102 -67 -174t-162 -72v0zM508.5 733q-69.5 0 -118.5 -52.5t-49 -127t49 -127.5t118.5 -53t118.5 53t49 127.5t-49 127t-118.5 52.5z
M821 -32q-13 0 -22 10t-9 23q0 66 -25 126q-6 12 -1.5 25t16.5 19q6 3 13 3q9 0 17 -5.5t11 -13.5q31 -73 31 -154q0 -13 -9 -23t-22 -10zM197 -32q-13 0 -22 10t-9 23q0 76 27 144q26 66 73 117q20 21 52 44t58 35t65 20.5t68 8.5v0q90 0 168 -47q11 -7 14.5 -20.5
t-2.5 -25.5q-3 -7 -11 -12t-16 -5t-15 5q-27 15 -67 26.5t-71 11.5q-116 0 -198.5 -88.5t-82.5 -213.5q0 -13 -9 -23t-22 -10v0zM275 322q-77 0 -132 58.5t-55 141.5t55 142t132 59v-67q-51 0 -87.5 -39t-36.5 -94.5t36.5 -94.5t87.5 -39v-67zM31 57q-13 0 -22 9.5t-9 23.5
q0 123 80.5 209.5t194.5 86.5q13 0 22.5 -9.5t9.5 -23.5t-9.5 -24t-22.5 -10q-88 0 -150.5 -67t-62.5 -162q0 -14 -9 -23.5t-22 -9.5zM749 322v67q51 0 87.5 39t36.5 94.5t-36.5 94.5t-87.5 39v67q77 0 132 -59t55 -142t-55 -141.5t-132 -58.5v0zM993 57q-13 0 -22 9.5
t-9 23.5q0 95 -62.5 162t-150.5 67q-13 0 -22.5 10t-9.5 24t9.5 23.5t22.5 9.5q114 0 194 -86q34 -37 57.5 -97.5t23.5 -109.5v-3q0 -14 -9 -23.5t-22 -9.5v0z" />
    <glyph glyph-name="shopcar" unicode="&#xe782;" 
d="M189 -3zM128 -2.5q0 -25.5 18 -43.5t43.5 -18t43.5 18t18 43.5t-18 43.5t-43.5 18t-43.5 -18t-18 -43.5zM640 -3zM576 -2.5q0 -26.5 19 -45.5t45 -19t45 19t19 45.5t-19 45t-45 18.5t-45 -18.5t-19 -45zM992 832h-100q-4 0 -7 -1q-10 -1 -18.5 -7.5t-10.5 -17.5l-24 -102
h-743l-4 23q-3 17 -17.5 27.5t-32 7.5t-27.5 -17.5t-7 -31.5l70 -421q2 -14 11.5 -23.5t22.5 -11.5q1 -1 2 -1h622l-15 -64h-618q-13 0 -22.5 -9.5t-9.5 -22.5t9.5 -22.5t22.5 -9.5h651q17 0 20 17q3 4 4 8l142 615h79q13 0 22.5 9.5t9.5 22.5t-9.5 22.5t-22.5 9.5z" />
    <glyph glyph-name="anli2" unicode="&#xe7e0;" 
d="M839 893h-428q-18 -1 -36 -14q-8 -6 -11.5 -13.5t-3.5 -11.5l1 -5v-173q2 -16 -14 -34q-7 -8 -16.5 -13t-15.5 -6l-6 -2h-162q-28 2 -40 -8q-6 -5 -10.5 -14t-5.5 -16l-2 -7v-605q0 -39 28.5 -67.5t67.5 -28.5h653q40 0 68 28.5t28 67.5v826v0q0 39 -28 67.5t-67 28.5v0z
M451 521h272q9 0 16.5 -7t7.5 -17t-7.5 -17t-16.5 -7h-272q-10 0 -17 7t-7 17t7 17t17 7zM723 134h-426q-10 0 -17 7t-7 17t7 17t17 7h426q10 0 17 -7t7 -17t-7 -17t-17 -7zM723 300h-426q-10 0 -17 7.5t-7 17t7 16.5t17 7h426q10 0 17 -7t7 -16.5t-7 -17t-17 -7.5zM130 670
h133q1 1 4.5 2t11.5 5.5t14 10.5t10.5 17t3.5 24l1 131q-1 2 -1 4t-1 6.5t-3 7t-6.5 2t-9.5 -6.5q-9 -8 -51 -51t-79.5 -82l-37.5 -39q-2 -1 -3.5 -3t-5 -7.5t-3.5 -9.5t5.5 -7.5t17.5 -3.5z" />
    <glyph glyph-name="guanyu" unicode="&#xe61c;" 
d="M314 439q8 2 12.5 9t2.5 15q-7 34 -2 69q12 76 74 121.5t138 33.5q36 -5 67 -24q7 -4 15 -2t12.5 9t2.5 15t-9 13q-38 22 -82 29q-92 14 -167.5 -41t-90.5 -148q-6 -42 3 -84q4 -15 20 -15h4zM871 290q0 43 -30 71q30 69 30 143q0 97 -48.5 180t-131.5 131.5t-180.5 48.5
t-180.5 -48.5t-131.5 -131.5t-48.5 -180q0 -88 40 -164t108 -126q1 -6 2 -11q5 -17 14 -31q68 -103 106 -159q55 -83 158 -102q9 -2 24 -4q9 -1 11 -1q4 -1 8 -1h41q5 0 10 1q3 1 10 2q13 2 19 3q64 11 109.5 56t56.5 109q4 26 4 51v98v65zM211 504q0 124 87.5 212t212 88
t212.5 -88t88 -212q0 -62 -25 -119q-4 1 -8 1q-13 0 -25 -4q-15 14 -33 20q-3 1 -7 2q16 32 21 65q12 77 -26 144q-4 7 -11.5 9.5t-15 -1.5t-10 -12t1.5 -15q31 -56 21 -119q-6 -38 -26 -70q-1 0 -2 -0.5t-2 -0.5q-12 12 -29 19q-13 7 -28 7h-2v70q0 36 -22.5 62t-58.5 32
q-7 1 -13 1q-36 0 -63 -25t-30 -60v-15v-152q-29 17 -50 41q-5 7 -13.5 7.5t-14.5 -4.5t-7 -13.5t4 -14.5q15 -17 33 -32q-38 -9 -59 -43q0 -1 -0.5 -1.5t-0.5 -1.5q-47 42 -73 100t-26 123zM811 127q0 -20 -4 -41q-7 -45 -39 -76.5t-77 -39.5q-6 -1 -16 -2.5t-13 -2.5h-41
q-2 1 -14 2.5t-18 2.5q-78 14 -120 76q-36 55 -104 159q-4 6 -7 15q-5 17 3.5 32t25.5 18q5 1 9 1q20 0 34 -18q4 -5 42 -57q2 -3 5 -6h0.5h0.5v5v300v11q1 11 11 20t22 9h4q30 -5 30 -35v-95v-102q0 -5 1 -8q2 -6 9 -7h1q7 0 9 6q2 3 2 9l-1 24v-17v24q0 20 15 29q0 1 12 7
h14l1 -1q26 -9 26 -36v-24v18v-24v-5q1 -10 11 -10h1q9 1 9 12v0v1v12q1 13 8 22q10 13 26 13q6 0 11 -2q23 -8 23 -35v-23v8.5v8.5v-24v-6q1 -8 9 -9h2q7 0 9 6q1 4 1 9v6v-12q1 0 1 14q0 10 3 18q8 19 30 19q3 0 7 -1q26 -6 26 -35v-163v0z" />
    <glyph glyph-name="guanyu1" unicode="&#xe610;" 
d="M301 443q9 2 13.5 9.5t2.5 15.5q-8 37 -2 74q12 81 78.5 129.5t147.5 36.5q38 -6 71 -26q8 -5 16.5 -2.5t13 10t2.5 16t-10 13.5q-40 24 -87 31q-98 15 -178.5 -44t-96.5 -157q-7 -46 3 -90q4 -17 21 -17q2 0 5 1zM895 284q0 46 -32 76q32 73 32 152q0 104 -51.5 192.5
t-140 140t-193 51.5t-193 -51.5t-140 -140t-51.5 -192.5q0 -94 42.5 -175t115.5 -135q1 -5 2 -11q6 -19 15 -33q72 -110 112 -170q59 -89 169 -109q10 -1 26 -3q10 -2 11 -2q5 -1 10 -1h43q5 0 10 1q4 1 12 2q10 1 19 3q69 12 117.5 60t59.5 116q5 28 5 55v105v69zM190 512
q0 87 43 160.5t117 116.5t161 43t160.5 -43t116.5 -116.5t43 -160.5q0 -66 -26 -126h-9v0q-14 0 -27 -4q-16 15 -36 22l-6 2q16 33 22 69q12 81 -27 153q-5 8 -13.5 10.5t-16 -2t-10 -13t1.5 -15.5q33 -60 23 -127q-7 -40 -29 -75h-1.5h-2.5q-13 12 -31 19q-14 8 -30 8h-2
v74q0 39 -24 67t-62 34q-7 1 -15 1q-37 0 -66 -26.5t-32 -63.5q-1 -6 -1 -16v-163q-30 18 -52 45q-6 6 -15 7t-15.5 -4.5t-7.5 -14.5t5 -16q15 -18 34 -33q-41 -11 -62 -47q-1 0 -1.5 -1t-0.5 -2q-50 45 -78 106.5t-28 131.5zM831 110q0 -22 -4 -44q-8 -48 -42 -81.5
t-82 -42.5q-6 -1 -16.5 -2.5t-14.5 -2.5h-43q-3 1 -16 2.5t-19 2.5q-83 16 -127 81q-39 59 -112 170q-5 6 -7 16q-6 18 3.5 34t26.5 19q6 1 10 1q22 0 36 -18q4 -6 45 -62q3 -3 5 -6h0.5h1.5v6v320v11q1 12 11.5 21.5t22.5 9.5h5q32 -5 32 -38v-100.5v-108.5q0 -5 1 -9
q2 -7 10 -7h1q7 0 10 6q1 3 1 9v26v-18v25q0 22 15 32q1 1 14 7h14l1 -1q28 -10 28 -39v-25v19v-26v-5q1 -10 11 -10h2q9 1 10 12v1v1v12q0 14 8 23q11 14 28 14q6 0 12 -2q24 -8 24 -36v-26v9.5v9.5v-26v-6q1 -8 10 -10h1v0q8 0 11 7q1 4 1 9v7v-13v15q0 10 4 18
q9 21 32 21q3 0 7 -1q13 -3 20.5 -13t7.5 -24v-174z" />
    <glyph glyph-name="fengcai-copy" unicode="&#xe604;" 
d="M836 563q-49 -58 -274 -177l-7 -4q9 28 23 70.5t48.5 126.5t57.5 112q39 47 88.5 61t81 -12.5t26 -78t-43.5 -98.5v0v0zM870 306q-27 -3 -65.5 -0.5t-85.5 9.5t-86.5 14.5t-67 13.5t-26.5 6q24 15 62 39t118.5 66t115.5 48q60 11 107 -10.5t54 -62t-30 -76.5t-96 -47v0v0
v0zM731 88q-31 18 -87.5 80t-97.5 113.5t-41 52.5q29 -4 73 -10.5t132.5 -26t119.5 -37.5q53 -30 75.5 -77t2 -82.5t-72 -39.5t-104.5 27v0v0v0zM485 10q-12 33 -16 117t-2 151l3 66q19 -21 49 -54.5t85 -105.5t68 -106q20 -57 7.5 -107.5t-51 -64.5t-80.5 16t-63 88v0v0v0z
M247 108q8 22 31.5 57t52 70.5t55.5 67.5t45 52.5t18 19.5q1 -29 2.5 -74t-2 -136t-16.5 -125q-20 -57 -62 -87.5t-80.5 -16t-51.5 64.5t8 107v0v0v0zM128 338q31 18 113.5 36.5t144.5 28t67 9.5q-17 -23 -45 -58.5t-89 -102.5t-92 -85q-53 -31 -104.5 -27t-72 39.5t2 82.5
t75.5 77v0v0v0zM183 591q76 -13 292 -150l5 -4q-28 -6 -72 -15t-134 -21t-125 -6q-60 11 -97 47t-30 76.5t54.5 62t106.5 10.5v0v0v0zM388 749q23 -28 55 -105.5t52.5 -139.5t20.5 -64q-25 13 -64.5 34.5t-116 70.5t-99.5 76q-39 47 -44.5 98.5t26 78t81.5 12.5t89 -61v0v0
v0zM645 738q0 -78 -97 -316l-2 -4q-11 27 -27.5 69t-44 128.5t-27.5 122.5q0 61 29 104t70 43t70 -43t29 -104v0v0zM645 738z" />
    <glyph glyph-name="add7" unicode="&#xe608;" 
d="M344 336q-1 -2 -2 -3l-45 -170q-4 -16 8 -28q8 -8 19 -8h8l163 47l0.5 -0.5l0.5 -0.5q3 0 5 3l437 452q21 21 21 51q0 36 -26 62l-41 43q-26 26 -60 26q-30 0 -50 -20l-438 -453v-0.5v-0.5zM825 745q5 6 13 5t14 -7l42 -42q6 -7 6 -17q0 -7 -4 -12l-44 -45l-70 74z
M737 655l71 -74l-315 -326l-71 74zM387 283l61 -63l-84 -24zM923.5 493q-12.5 0 -21.5 -9t-9 -22v-422q0 -17 -11.5 -28.5t-27.5 -11.5h-689q-16 0 -27.5 11.5t-11.5 28.5v688q0 17 11.5 28.5t27.5 11.5h444q12 0 21 9t9 22t-9 22t-21 9h-449q-39 0 -66.5 -28.5t-27.5 -68.5
v-698q0 -40 27.5 -68.5t66.5 -28.5h699q39 0 66.5 28.5t27.5 68.5v427q0 13 -8.5 22t-21 9z" />
    <glyph glyph-name="good-decrease" unicode="&#xe60d;" 
d="M512 896q-139 0 -257 -68.5t-186.5 -186.5t-68.5 -257t68.5 -257t186.5 -186.5t257 -68.5t257 68.5t186.5 186.5t68.5 257t-68.5 257t-186.5 186.5t-257 68.5zM452 326h-250v116h617v-116h-367v0z" />
    <glyph glyph-name="good-add" unicode="&#xe60e;" 
d="M512 896q-139 0 -257 -68.5t-186.5 -186.5t-68.5 -257t68.5 -257t186.5 -186.5t257 -68.5t257 68.5t186.5 186.5t68.5 257t-68.5 257t-186.5 186.5t-257 68.5zM819 326h-251v-251h-116v251h-250v116h250v251h116v-251h251v-116z" />
    <glyph glyph-name="back" unicode="&#xe614;" 
d="M533 -9l-393 393l393 393q9 9 9 22.5t-9.5 23t-23 9.5t-22.5 -9l-412 -412q-11 -11 -9 -26q-2 -16 9 -28l412 -412q9 -9 22.5 -9t23 9.5t9.5 23t-9 22.5z" />
    <glyph glyph-name="add8" unicode="&#xe64a;" 
d="M464.5 359q97.5 0 166.5 69t69 166.5t-69 166.5t-166.5 69t-166 -69t-68.5 -166.5t68.5 -166.5t166 -69zM464.5 453q-58.5 0 -99.5 41.5t-41 100t41 100t99.5 41.5t100 -41.5t41.5 -100t-41.5 -100t-100 -41.5zM654 362q-89 44 -189 44q-115 0 -212.5 -56.5t-154.5 -154
t-57 -212.5q0 -20 14 -33.5t33.5 -13.5t33 13.5t13.5 33.5q0 89 44.5 165t120 120t165.5 44q78 0 147 -34q17 -9 35.5 -2.5t27 23.5t2.5 35.5t-23 27.5zM747 171h-94q-19 0 -33 -14t-14 -33.5t14 -33t33 -13.5h94v-95q0 -19 14 -32.5t33.5 -13.5t33.5 13.5t14 32.5v95h94
q19 0 33 13.5t14 33t-14 33.5t-33 14h-94v94q0 19 -14 33t-33.5 14t-33.5 -13.5t-14 -33.5v-94z" />
    <glyph glyph-name="shop_car_1" unicode="&#xe6c0;" 
d="M848 -2q-25 -1 -43 -19t-18 -44t17.5 -44t43.5 -19q26 1 43.5 19t17.5 44t-17.5 44t-43.5 19v0zM998 754q-25 30 -64 30h-1h-759l-4 25q-4 37 -32.5 62t-64.5 25h-47q-11 0 -18.5 -7.5t-7.5 -18t7.5 -18t18.5 -7.5h47q17 0 30.5 -13t15.5 -31l36 -208l64 -447
q4 -37 32 -62t64 -25h608q10 0 17 7.5t7 18t-7 18t-17 7.5h-608q-16 0 -29.5 12.5t-15.5 30.5l-8 56l606 37q35 0 63.5 25t32.5 60l59 338q6 51 -25 85v0zM325 -2q-26 -1 -44 -19t-18 -44t18 -44t44 -19q25 1 43 19t18 44t-18 44t-43 19v0z" />
    <glyph glyph-name="shop_car_2" unicode="&#xe606;" 
d="M314 57.5q0 -37.5 26 -63.5t63 -26t63.5 26t26.5 63.5t-26.5 63.5t-63.5 26t-63 -26t-26 -63.5zM646 58v0q0 -38 26.5 -64t63.5 -26t63.5 26t26.5 64v0v0q0 37 -26.5 63t-63.5 26t-63.5 -26t-26.5 -63v0zM205 730h-109q-6 0 -12.5 5t-6.5 14q0 6 5 12.5t14 6.5h109
q6 0 12.5 -5.5t6.5 -13.5q0 -19 -19 -19zM512 192h-134q-32 0 -55.5 17.5t-32 35.5t-8.5 30q0 11 -58 256q-38 192 -38 211l38 7q0 -32 45 -211l51 -263q1 -1 2 -4t5.5 -10t10.5 -12.5t16.5 -11t23.5 -7.5h422v-38h-288zM781 211v0q0 -8 5.5 -13.5t13.5 -5.5t13.5 5.5
t5.5 13.5v0v0q0 8 -5.5 13.5t-13.5 5.5t-13.5 -5.5t-5.5 -13.5v0zM877 627q0 12 -6.5 16.5t-12.5 3.5l-7 -1h-627l90 -377q505 64 524 70q12 0 16.5 6.5t3.5 12.5v7q19 237 19 262zM390 339h-6q-5 0 -12 4.5t-7 8.5l-39 211q0 6 4.5 12.5t8.5 6.5h7q5 0 12 -4t7 -8l38 -218
q0 -5 -4 -9t-9 -4zM473.5 358q-19.5 0 -19.5 13l-19 192q0 19 13 19h6q6 0 13 -4t7 -8l19 -192q0 -20 -19.5 -20zM576 390q0 -4 -7 -8t-12 -4t-9 4t-4 8v180q0 12 19 12q6 0 9 -2t3.5 -4t0.5 -6v-180zM666 410q0 -13 -20 -13q-12 0 -12 19l12 160q0 13 20 13q12 0 12 -19z
M749 422q0 -4 -7 -8t-12 -4h-7q-4 0 -8.5 6.5t-4.5 12.5l39 147q0 4 7 8.5t12 4.5h6q5 0 9 -7t4 -12z" />
    <glyph glyph-name="add9" unicode="&#xe62d;" horiz-adv-x="1028" 
d="M1028 555h-341v341h-342v-341h-341v-342h341v-341h342v341h341v342z" />
    <glyph glyph-name="bad_right" unicode="&#xe626;" 
d="M810 290h107h5q15 0 26 10.5t11 26.5v447q0 16 -11 27t-26 11q-3 0 -6 -1h-106v-521zM81 305q31 -50 90 -52q3 -1 5 -1h208q-21 -62 -21 -129q0 -42 9 -85h1q8 -36 37.5 -60t67.5 -24q45 0 77 32t32 76q0 5 -1 10q2 70 43.5 126t105.5 79v534h-485q-32 0 -59 -17
q-26 -16 -39 -43q-4 -5 -6 -12l-80 -355q-2 -7 -1 -13q-3 -36 16 -66z" />
    <glyph glyph-name="chanpin" unicode="&#xe605;" 
d="M527 448q-32 0 -56 12l-306 151q-33 16 -34 45q0 30 34 47l309 157q26 13 60 13q32 0 56 -12l306 -151q33 -16 33 -45t-33 -47l-310 -157q-25 -13 -59 -13zM187 657l307 -151q13 -6 33 -6q22 0 36 7l310 157v1l-306 150q-13 7 -33 7q-22 0 -37 -8l-309 -157h-1zM463 -105
q-16 0 -33 8v1l-274 143q-25 12 -41 35.5t-16 45.5v387q0 21 13 34t34 13q16 0 33 -8v-1l274 -143q25 -12 41.5 -35.5t16.5 -45.5v-387q0 -20 -13.5 -33.5t-34.5 -13.5zM453 -51q4 -1 6 -2v382q0 7 -8 18t-21 17v0l-274 144q-3 2 -6 2v-382q0 -7 8.5 -18t20.5 -17v0
l274 -144v0zM611 -105v0q-21 0 -34.5 13.5t-13.5 33.5v387q0 22 16.5 45.5t41.5 35.5l274 144q17 8 33 8q20 0 33.5 -13t13.5 -34v-387q0 -22 -16.5 -45.5t-40.5 -35.5l-275 -144q-17 -8 -32 -8zM918 508l-275 -144q-12 -6 -20.5 -17t-8.5 -18v-382q3 1 7 2l274 144
q12 6 20.5 17t8.5 18v382q-3 0 -6 -2z" />
  </font>
</defs>
</svg>
